<svg width="709" height="399" viewBox="0 0 709 399" fill="none" xmlns="http://www.w3.org/2000/svg">
<path fill-rule="evenodd" clip-rule="evenodd" d="M235.105 3.50001C232.411 -1.16666 225.675 -1.16667 222.981 3.49999L0.948266 388.072C-1.74603 392.739 1.62183 398.572 7.01043 398.572H76.4191L269.688 63.3996L235.105 3.50001ZM185.317 398.572H108.198L285.588 90.9379L324.172 157.767L185.317 398.572ZM217.096 398.572H298.148L380.622 255.543L340.071 185.306L217.096 398.572ZM396.522 283.081L329.927 398.572H451.076C456.464 398.572 459.832 392.739 457.138 388.072L396.522 283.081Z" fill="#006EDB"/>
<path fill-rule="evenodd" clip-rule="evenodd" d="M453.874 398H518V247.5C518 232.5 522.167 220.833 530.5 212.5C538.833 204.167 550.167 200 564.5 200C578.833 200 590.167 204.167 598.5 212.5C606.833 220.833 611 232.5 611 247.5V398H709V234.5C709 197.5 698.833 168.333 678.5 147C658.5 125.667 630.833 115 595.5 115C575.833 115 557.833 119.833 541.5 129.5C525.167 138.833 512 151.167 502 166.5C492.667 150.167 479.833 137.5 463.5 128.5C447.5 119.5 429.167 115 408.5 115C390.5 115 374.5 118.667 360.5 126C346.833 133 335.667 142.5 327 154.5V117.5H300.923L351.125 204.452C357.622 201.484 365.247 200 374 200C388.333 200 399.5 204.167 407.5 212.5C415.833 220.833 420 232.5 420 247.5V323.747L457.138 388.072C459.326 391.862 457.516 396.42 453.874 398Z" fill="white"/>
</svg>
