<svg width="549" height="399" fill="none" xmlns="http://www.w3.org/2000/svg"><path fill-rule="evenodd" clip-rule="evenodd" d="M235.105 3.5c-2.694-4.667-9.43-4.667-12.124 0L.948 388.072c-2.694 4.667.674 10.5 6.062 10.5h69.41L269.687 63.4 235.105 3.5zm-49.788 395.072h-77.119l177.39-307.634 38.584 66.829-138.855 240.805zm31.779 0h81.052l82.474-143.029-40.551-70.237-122.975 213.266zm179.426-115.491l-66.595 115.491h121.149c5.388 0 8.756-5.833 6.062-10.5l-60.616-104.991z" fill="#006EDB"/><path fill-rule="evenodd" clip-rule="evenodd" d="M344.701 193.326c13.005-10.521 29.71-15.782 50.117-15.782 20.558 0 36.267 5.722 47.127 17.165 10.861 11.085 16.291 28.071 16.291 50.957V398H549V232.792c0-42.195-12.024-74.021-36.073-95.477-23.66-21.455-54.885-32.183-93.672-32.183-20.17 0-38.788 3.04-55.855 9.119-17.067 5.721-31.612 14.125-43.636 25.21V0H229h.043c2.358 0 4.715 1.167 6.062 3.5l109.596 189.826z" fill="#fff"/></svg>