<svg width="1223" height="151" fill="none" xmlns="http://www.w3.org/2000/svg"><path fill-rule="evenodd" clip-rule="evenodd" d="M89.206 4.384c-2.695-4.667-9.43-4.667-12.125 0L.948 136.25c-2.694 4.666.674 10.5 6.062 10.5h18.607L98.463 20.419 89.206 4.384zM66.662 146.75H37.595l66.861-115.952 14.543 25.19-52.337 90.762zm11.978 0h30.55l31.086-53.91-15.284-26.473L78.64 146.75zm67.629-43.53l-25.101 43.53h38.109c5.388 0 8.756-5.834 6.062-10.5l-19.07-33.03z" fill="#006EDB"/><path d="M411.219 0h31.182v28h-31.182V0zM297.167 39.7c13.343 0 24.084 4 32.223 12 8.273 8 12.409 19.867 12.409 35.6v61.6h-31.222V92.1c0-8.533-1.868-14.867-5.604-19-3.737-4.267-9.14-6.4-16.212-6.4-7.873 0-14.144 2.467-18.814 7.4-4.67 4.8-7.005 12-7.005 21.6v53.2h-31.223V41.3h29.822v12.6c4.136-4.533 9.273-8 15.411-10.4 6.138-2.533 12.876-3.8 20.215-3.8zM411.131 36.5h31.222v112.4h-31.222V36.5zM577.807 39.7c13.343 0 24.085 4 32.224 12 8.272 8 12.409 19.867 12.409 35.6v61.6h-31.223V92.1c0-8.533-1.868-14.867-5.604-19-3.736-4.267-9.14-6.4-16.212-6.4-7.872 0-14.143 2.467-18.813 7.4-4.67 4.8-7.005 12-7.005 21.6v53.2H512.36V.5h31.223v52c4.136-4.133 9.14-7.267 15.011-9.4 5.871-2.267 12.275-3.4 19.213-3.4zM744.181 150.5c-11.342 0-21.549-2.333-30.622-7-8.94-4.8-15.945-11.4-21.015-19.8-5.071-8.4-7.606-17.933-7.606-28.6 0-10.667 2.535-20.2 7.606-28.6 5.07-8.4 12.075-14.933 21.015-19.6 9.073-4.8 19.28-7.2 30.622-7.2 11.342 0 21.482 2.4 30.422 7.2 8.94 4.667 15.945 11.2 21.015 19.6 5.071 8.4 7.606 17.933 7.606 28.6 0 10.667-2.535 20.2-7.606 28.6-5.07 8.4-12.075 15-21.015 19.8-8.94 4.667-19.08 7-30.422 7zm0-25.6c8.006 0 14.544-2.667 19.614-8 5.204-5.467 7.806-12.733 7.806-21.8s-2.602-16.267-7.806-21.6c-5.07-5.467-11.608-8.2-19.614-8.2s-14.611 2.733-19.814 8.2c-5.204 5.333-7.806 12.533-7.806 21.6 0 9.067 2.602 16.333 7.806 21.8 5.203 5.333 11.808 8 19.814 8zM1003.02 39.7c13.48 0 24.15 4 32.03 12 8 7.867 12 19.733 12 35.6v61.6h-31.22V92.1c0-8.533-1.8-14.867-5.4-19-3.47-4.267-8.47-6.4-15.012-6.4-7.339 0-13.143 2.4-17.413 7.2-4.27 4.667-6.405 11.667-6.405 21v54h-31.222V92.1c0-16.933-6.805-25.4-20.415-25.4-7.205 0-12.943 2.4-17.213 7.2-4.269 4.667-6.404 11.667-6.404 21v54h-31.223V41.3h29.822v12.4c4.003-4.533 8.873-8 14.61-10.4 5.871-2.4 12.276-3.6 19.214-3.6 7.606 0 14.477 1.533 20.615 4.6 6.138 2.933 11.075 7.267 14.811 13 4.403-5.6 9.94-9.933 16.612-13 6.805-3.067 14.21-4.6 22.213-4.6zM1222.72 95.5c0 .4-.2 3.2-.6 8.4h-81.46c1.47 6.667 4.94 11.933 10.41 15.8 5.47 3.867 12.27 5.8 20.41 5.8 5.61 0 10.54-.8 14.81-2.4 4.41-1.733 8.48-4.4 12.21-8l16.61 18c-10.14 11.6-24.95 17.4-44.43 17.4-12.14 0-22.88-2.333-32.22-7-9.34-4.8-16.55-11.4-21.62-19.8s-7.6-17.933-7.6-28.6c0-10.533 2.47-20 7.4-28.4 5.07-8.533 11.94-15.133 20.62-19.8 8.8-4.8 18.61-7.2 29.42-7.2 10.54 0 20.08 2.267 28.62 6.8 8.54 4.533 15.21 11.067 20.01 19.6 4.94 8.4 7.41 18.2 7.41 29.4zm-55.84-32.2c-7.07 0-13.01 2-17.81 6-4.81 4-7.74 9.467-8.81 16.4h53.04c-1.07-6.8-4-12.2-8.81-16.2-4.8-4.133-10.67-6.2-17.61-6.2z" fill="#fff"/></svg>