<svg width="1220" height="219" viewBox="0 0 1220 219" fill="none" xmlns="http://www.w3.org/2000/svg">
<path fill-rule="evenodd" clip-rule="evenodd" d="M89.2055 20.384C86.5112 15.7174 79.7754 15.7174 77.0811 20.384L0.948266 152.25C-1.74603 156.916 1.62184 162.75 7.01044 162.75H25.617L98.463 36.4186L89.2055 20.384ZM66.6624 162.75H37.5948L104.456 46.7982L118.999 71.9872L66.6624 162.75ZM78.6402 162.75H109.19L140.276 108.84L124.992 82.3668L78.6402 162.75ZM146.269 119.22L121.168 162.75H159.277C164.665 162.75 168.033 156.916 165.339 152.25L146.269 119.22Z" fill="#006EDB"/>
<path d="M262.6 49.8C275.533 49.8 285.8 54.1333 293.4 62.8C301 71.3333 304.8 82.9333 304.8 97.6V163H265.6V102.8C265.6 96.4 263.933 91.4 260.6 87.8C257.267 84.0667 252.8 82.2 247.2 82.2C241.333 82.2 236.733 84.0667 233.4 87.8C230.067 91.4 228.4 96.4 228.4 102.8V163H189.2V50.8H228.4V66.8C231.867 61.7333 236.533 57.6667 242.4 54.6C248.267 51.4 255 49.8 262.6 49.8ZM362.109 40.4C355.176 40.4 349.576 38.5333 345.309 34.8C341.176 30.9333 339.109 26.1333 339.109 20.4C339.109 14.5333 341.176 9.66666 345.309 5.8C349.576 1.93332 355.176 -1.14441e-05 362.109 -1.14441e-05C368.909 -1.14441e-05 374.376 1.93332 378.509 5.8C382.776 9.66666 384.909 14.5333 384.909 20.4C384.909 26.1333 382.776 30.9333 378.509 34.8C374.376 38.5333 368.909 40.4 362.109 40.4ZM381.509 50.8V163H342.309V50.8H381.509ZM566.433 49.8C580.566 49.8 591.633 54.0667 599.633 62.6C607.766 71.1333 611.833 82.8 611.833 97.6V163H572.633V102.8C572.633 96.8 570.966 92.1333 567.633 88.8C564.299 85.4667 559.766 83.8 554.033 83.8C548.299 83.8 543.766 85.4667 540.433 88.8C537.099 92.1333 535.433 96.8 535.433 102.8V163H496.233V102.8C496.233 96.8 494.566 92.1333 491.233 88.8C488.033 85.4667 483.566 83.8 477.833 83.8C471.966 83.8 467.366 85.4667 464.033 88.8C460.699 92.1333 459.033 96.8 459.033 102.8V163H419.833V50.8H459.033V65.6C462.499 60.8 466.966 57 472.433 54.2C478.033 51.2667 484.433 49.8 491.633 49.8C499.899 49.8 507.233 51.6 513.633 55.2C520.166 58.8 525.299 63.8667 529.033 70.4C533.033 64.2667 538.299 59.3333 544.833 55.6C551.366 51.7333 558.566 49.8 566.433 49.8ZM642.909 106.8C642.909 95.2 644.976 85.0667 649.109 76.4C653.376 67.7333 659.109 61.0667 666.309 56.4C673.643 51.7333 681.776 49.4 690.709 49.4C698.443 49.4 705.109 50.9333 710.709 54C716.309 57.0667 720.643 61.2 723.709 66.4V50.8H762.909V163H723.709V147.4C720.643 152.6 716.243 156.733 710.509 159.8C704.909 162.867 698.309 164.4 690.709 164.4C681.776 164.4 673.643 162.067 666.309 157.4C659.109 152.733 653.376 146.067 649.109 137.4C644.976 128.6 642.909 118.4 642.909 106.8ZM723.709 106.8C723.709 99.6 721.709 93.9333 717.709 89.8C713.843 85.6667 709.043 83.6 703.309 83.6C697.443 83.6 692.576 85.6667 688.709 89.8C684.843 93.8 682.909 99.4667 682.909 106.8C682.909 114 684.843 119.733 688.709 124C692.576 128.133 697.443 130.2 703.309 130.2C709.043 130.2 713.843 128.133 717.709 124C721.709 119.867 723.709 114.133 723.709 106.8ZM874.647 49.8C887.58 49.8 897.847 54.1333 905.447 62.8C913.047 71.3333 916.847 82.9333 916.847 97.6V163H877.647V102.8C877.647 96.4 875.98 91.4 872.647 87.8C869.314 84.0667 864.847 82.2 859.247 82.2C853.38 82.2 848.78 84.0667 845.447 87.8C842.114 91.4 840.447 96.4 840.447 102.8V163H801.247V50.8H840.447V66.8C843.914 61.7333 848.58 57.6667 854.447 54.6C860.314 51.4 867.047 49.8 874.647 49.8ZM995.756 49.4C1003.36 49.4 1009.96 50.9333 1015.56 54C1021.29 57.0667 1025.69 61.2 1028.76 66.4V50.8H1067.96V161.8C1067.96 172.333 1065.96 181.8 1061.96 190.2C1057.96 198.733 1051.69 205.533 1043.16 210.6C1034.76 215.667 1024.09 218.2 1011.16 218.2C993.823 218.2 979.956 214.133 969.556 206C959.156 197.867 953.223 186.8 951.756 172.8H990.356C991.156 176.4 993.156 179.2 996.356 181.2C999.556 183.2 1003.69 184.2 1008.76 184.2C1022.09 184.2 1028.76 176.733 1028.76 161.8V147.4C1025.69 152.6 1021.29 156.733 1015.56 159.8C1009.96 162.867 1003.36 164.4 995.756 164.4C986.823 164.4 978.69 162.067 971.356 157.4C964.156 152.733 958.423 146.067 954.156 137.4C950.023 128.6 947.956 118.4 947.956 106.8C947.956 95.2 950.023 85.0667 954.156 76.4C958.423 67.7333 964.156 61.0667 971.356 56.4C978.69 51.7333 986.823 49.4 995.756 49.4ZM1028.76 106.8C1028.76 99.6 1026.76 93.9333 1022.76 89.8C1018.89 85.6667 1014.09 83.6 1008.36 83.6C1002.49 83.6 997.623 85.6667 993.756 89.8C989.89 93.8 987.956 99.4667 987.956 106.8C987.956 114 989.89 119.733 993.756 124C997.623 128.133 1002.49 130.2 1008.36 130.2C1014.09 130.2 1018.89 128.133 1022.76 124C1026.76 119.867 1028.76 114.133 1028.76 106.8ZM1099.89 106.8C1099.89 95.2 1101.96 85.0667 1106.09 76.4C1110.36 67.7333 1116.09 61.0667 1123.29 56.4C1130.63 51.7333 1138.76 49.4 1147.69 49.4C1155.43 49.4 1162.09 50.9333 1167.69 54C1173.29 57.0667 1177.63 61.2 1180.69 66.4V50.8H1219.89V163H1180.69V147.4C1177.63 152.6 1173.23 156.733 1167.49 159.8C1161.89 162.867 1155.29 164.4 1147.69 164.4C1138.76 164.4 1130.63 162.067 1123.29 157.4C1116.09 152.733 1110.36 146.067 1106.09 137.4C1101.96 128.6 1099.89 118.4 1099.89 106.8ZM1180.69 106.8C1180.69 99.6 1178.69 93.9333 1174.69 89.8C1170.83 85.6667 1166.03 83.6 1160.29 83.6C1154.43 83.6 1149.56 85.6667 1145.69 89.8C1141.83 93.8 1139.89 99.4667 1139.89 106.8C1139.89 114 1141.83 119.733 1145.69 124C1149.56 128.133 1154.43 130.2 1160.29 130.2C1166.03 130.2 1170.83 128.133 1174.69 124C1178.69 119.867 1180.69 114.133 1180.69 106.8Z" fill="white"/>
</svg>
