<svg width="421" height="232" viewBox="0 0 421 232" fill="none" xmlns="http://www.w3.org/2000/svg">
<path fill-rule="evenodd" clip-rule="evenodd" d="M71.0319 98.1312C53.3081 98.9525 37.0061 97.1273 22.9396 86.9591C11.1389 78.4337 3.93075 66.425 0.760075 51.9751C-1.80232 40.4685 2.37202 28.3077 12.0665 22.8472C19.7765 18.497 28.3989 18.284 36.9149 20.8622C45.1267 23.3263 52.2208 27.494 57.3456 34.7721C58.6762 36.6582 60.5543 38.1413 62.2879 39.9133C63.8542 33.8291 65.3825 27.9046 66.9032 21.9878C69.6253 11.4318 76.8334 5.83432 86.9613 4.02428C96.5114 2.3131 104.64 5.54532 110.897 13.0517C116.828 20.193 118.828 28.8553 118.721 37.8675C118.643 47.9365 116.078 57.8303 111.255 66.6684C107.673 73.3002 102.009 77.696 96.7319 82.5709C95.3328 83.8638 93.7437 84.9513 92.1165 86.2138C94.9602 91.1724 98.9597 93.819 103.94 95.4617C114.387 98.8917 124.591 97.5456 134.734 94.1841C141.159 92.0622 147.66 90.062 154.047 87.8869C161.514 85.362 167.734 80.5936 173.961 75.924C189.868 63.961 204.17 50.1119 218.921 36.7571C231.915 24.9994 245.389 13.6449 262.839 8.80796C268.61 7.21847 274.016 4.16117 279.825 2.89871C287.178 1.30374 294.66 0.369648 302.179 0.107593C309.741 -0.0648556 317.304 0.357265 324.8 1.37006C331.326 2.21095 337.773 3.58447 344.075 5.47687C356.575 9.20343 368.748 13.9034 379.735 21.1436C390.723 28.3838 400.037 37.3047 406.18 49.5871C412.689 62.5996 416.506 76.2434 418.787 90.4879C419.874 97.2794 421.608 103.919 420.779 110.931C418.848 127.32 414.841 143.01 406.72 157.429C404.439 161.528 402.538 165.901 399.968 169.81C394.197 178.579 386.457 185.781 378.344 191.865C367.973 199.592 357.411 207.479 345.284 212.399C339.201 214.871 332.738 216.468 326.571 218.795C309.274 225.253 291.216 229.45 272.845 231.283C260.2 232.599 247.297 231.633 234.516 231.451C214.936 231.169 196.81 224.477 178.888 217.427C168.616 213.381 158.701 208.3 148.885 203.144C141.106 199.075 134.438 193.333 128.606 186.633C124.599 182.07 120.242 177.773 116.182 173.278C107.311 163.58 99.5995 152.881 93.2038 141.397C87.0526 130.233 79.3882 119.905 75.0162 107.737C73.8376 104.428 72.3093 101.249 71.0319 98.1312Z" fill="#163657"/>
<path d="M154.543 200.544C164.04 200.331 172.905 200.445 181.733 199.867C197.214 198.848 212.566 197.061 227.59 192.672C239.117 189.296 250.887 186.755 261.806 181.523C272.725 176.291 283.362 170.876 292.897 163.362C299.74 157.97 306.583 152.502 313.198 146.76C320.855 140.105 325.6 131.291 330.017 122.233C335.34 111.403 338.959 100.178 339.286 87.3477L353.892 84.3057C354.554 92.4889 354.371 99.8963 352.683 107.19C346.129 135.58 332.025 159.301 309.199 177.082C300.941 183.5 291.711 188.718 282.678 194.026C267.646 202.863 251.001 207.358 234.365 211.921C227.297 213.98 220.094 215.542 212.809 216.598C200.681 218.165 188.896 217.359 177.62 212.18C171.4 209.358 165.317 206.369 159.234 203.365C157.714 202.643 156.353 201.646 154.543 200.544Z" fill="#3275A6"/>
<path d="M121.507 171.02C123.217 171.195 125.065 171.02 126.631 171.605C134.904 174.769 143.557 175.53 152.225 176.29C177.412 178.65 202.818 176.742 227.37 170.647C237.298 168.05 247.012 164.691 256.424 160.6C267.243 155.984 276.398 148.508 284.61 140.066C293.324 131.146 302.41 122.445 308.295 111.167C310.274 107.365 311.883 103.382 313.1 99.2721C313.929 96.4734 315.138 94.9827 317.989 94.2907C323.221 93.013 328.361 91.3246 333.881 89.7275C335.143 95.2185 333.812 100.299 332.109 104.87C326.171 120.757 319.571 136.325 305.596 147.101C298.965 152.204 292.959 158.243 286.009 162.829C272.193 171.955 257.655 179.75 241.726 184.618C229.264 188.42 216.68 191.843 203.8 193.577C193.65 194.881 183.435 195.604 173.203 195.744C165.478 195.889 157.722 194.809 149.974 194.36C147.442 194.236 144.962 193.593 142.687 192.472C140.413 191.351 138.393 189.775 136.752 187.842C133.619 184.367 129.908 181.386 126.593 178.085C124.654 176.184 122.898 174.107 121.05 172.107L121.507 171.02Z" fill="#3275A6"/>
<path d="M359.208 83.8791C363.07 83.5217 366.332 83.0045 369.609 82.9817C374.331 82.9817 375.107 83.7422 375.609 88.2521C376.606 98.0603 376.073 107.964 374.027 117.608C370.4 135.777 362.302 151.794 352.243 166.837C343.278 180.237 332.595 192.094 319.396 201.555C310.203 208.133 301.299 215.023 290.951 219.761C281.066 224.271 271.182 227.473 260.118 226.728C250.462 226.066 240.729 226.728 231.058 226.195C224.716 225.846 218.421 224.469 212.11 223.496C211.441 223.382 210.84 222.864 209.502 222.157C214.497 221.009 218.732 220.165 222.899 219.031C230.001 217.1 237.08 215.099 244.121 212.947C251.884 210.582 259.525 207.715 267.365 205.639C277.31 203 285.72 197.394 294.403 192.307C299.421 189.363 304.082 185.812 309.032 182.747C317.069 177.758 323.646 171.164 329.767 164.008C339.439 152.714 346.586 139.968 351.916 126.096C356.452 114.095 358.828 101.386 358.934 88.5563C358.957 87.233 359.086 85.8793 359.208 83.8791ZM308.515 97.8499C307.625 104.558 304.713 108.779 301.946 112.961C294.76 123.814 285.811 132.994 276.329 141.762C267.76 149.695 258.149 156.106 247.367 160.015C233.149 165.118 218.626 169.301 203.449 171.035C181.741 173.529 160.147 173.461 138.667 169.255C130.703 167.593 122.855 165.416 115.172 162.738C112.891 161.977 111.203 159.292 109.683 156.653C111.142 156.912 112.724 156.912 114.047 157.467C126.889 162.73 140.302 162.167 153.631 161.118C163.464 160.295 173.249 158.98 182.95 157.178C195.875 154.77 208.479 150.878 220.512 145.58C222.097 144.855 223.737 144.255 225.416 143.785C239.102 140.249 251.101 132.956 262.924 125.533C276.078 117.274 288.396 107.638 302.387 100.732C304.067 99.8957 305.77 99.1276 308.515 97.8499Z" fill="#3275A6"/>
<path d="M380.498 83.7134L394.184 85.2344C402.388 106.613 397.986 126.173 389.074 145.544C382.383 160.047 374.985 174.063 364.485 186.064C359.512 191.745 353.627 196.628 348.129 201.83C346.198 203.678 344.244 205.503 342.199 207.214C341.298 207.957 340.266 208.524 339.157 208.888C326.875 212.888 314.55 216.863 302.181 220.813C301.403 220.904 300.617 220.904 299.839 220.813C301.284 219.801 302.12 219.094 303.101 218.531C322.217 206.956 339.188 192.78 352.669 174.733C361.352 163.112 368.636 150.343 373.48 136.706C378.863 121.557 382.383 105.715 380.406 89.2348C380.27 88.0636 380.224 86.8772 380.186 85.6907C380.231 85.0237 380.336 84.362 380.498 83.7134Z" fill="#3275A6"/>
<path d="M400.911 88.0166C409.541 90.7317 413.791 95.9717 414.719 103.988C416.065 115.692 413.259 126.758 409.397 137.45C406.53 145.345 402.629 152.866 399.01 160.471C393.323 172.419 383.537 180.504 373.652 188.459C370.512 190.949 367.083 193.053 363.441 194.725C368.284 188.428 373.326 182.276 377.888 175.796C381.178 171.193 384.101 166.338 386.632 161.278C390.608 153.193 394.661 145.063 397.611 136.568C403.542 119.457 404.652 106.322 400.911 88.0166Z" fill="#3275A6"/>
<path d="M287.139 79.6589C289.105 79.5926 291.073 79.6434 293.032 79.811C298.712 80.7084 300.917 85.8951 297.754 90.7929C293.952 96.6489 282.326 98.5426 276.844 94.2533C274.875 92.7322 274.479 90.7473 274.943 88.5037C275.234 86.865 275.967 85.337 277.063 84.085C278.16 82.833 279.577 81.9047 281.163 81.4005C283.315 80.6399 285.55 80.1152 287.139 79.6589ZM389.224 74.7915C387.476 74.4493 384.556 74.2516 381.917 73.2705C378.032 71.8331 378.199 68.1218 380.397 65.6653C383.324 62.3494 387.445 60.8892 391.764 60.7751C395.68 60.6763 399.512 63.9541 399.892 67.0875C400.212 69.7721 397.733 72.6849 393.809 74.0386C392.699 74.4189 391.521 74.4341 389.224 74.7915Z" fill="#F4B77E"/>
<path fill-rule="evenodd" clip-rule="evenodd" d="M304.318 51.9765C306.962 51.6063 309.657 52.0215 312.066 53.1705C316.188 55.2468 319.51 58.2965 319.313 63.6353C319.115 68.9742 317.032 73.1038 311.99 75.3093C307.299 77.3627 302.532 78.4579 297.468 76.7391C288.503 73.697 286.184 62.9889 293.24 56.5168C296.259 53.7257 299.901 52.7675 304.318 51.9765Z" fill="black"/>
<path d="M300.391 58.4487C301.237 58.6276 302.027 59.0117 302.69 59.5674C303.353 60.123 303.869 60.8332 304.193 61.6353C304.862 63.3161 301.243 66.6471 299.372 66.8068C297.312 66.997 294.954 65.0729 294.863 63.1259C294.772 61.179 297.289 58.6084 300.391 58.4487Z" fill="white"/>
<path fill-rule="evenodd" clip-rule="evenodd" d="M371.252 40.4378C377.836 39.837 381.714 40.2933 384.725 45.1682C387.151 49.1153 386.831 55.2299 383.965 59.0858C382.861 60.5708 381.449 61.7993 379.825 62.6867C378.201 63.5742 376.405 64.0996 374.559 64.2269C371.306 64.527 368.025 64.2123 364.888 63.299C356.44 60.6448 356.356 50.6212 362.211 44.5978C364.679 42.2456 367.86 40.7819 371.252 40.4378Z" fill="black"/>
<path d="M372.986 50.0429C373.184 52.1647 370.705 54.4539 367.876 54.6973C365.968 54.8494 364.318 54.3322 364.075 52.0354C363.831 49.7387 366.074 47.3506 368.827 46.9856C371.1 46.6586 372.781 47.9058 372.986 50.0429Z" fill="white"/>
<path d="M350.383 69.1055C348.812 62.6879 330.728 66.9105 333.526 74.3701C334.136 75.9952 331.543 76.581 330.943 74.9776C326.981 64.4066 350.47 58.3103 352.966 68.498C353.018 68.8293 352.942 69.1679 352.755 69.4459C352.568 69.724 352.282 69.9211 351.956 69.9979C351.63 70.0746 351.287 70.0254 350.995 69.8599C350.703 69.6945 350.485 69.4251 350.383 69.1055Z" fill="black"/>
<path d="M219.713 111.919C213.28 116.299 204.612 117.82 197.305 120.034C192.971 121.349 188.645 122.718 184.44 124.407C181.627 125.555 177.392 127.076 175.955 130.05C174.434 133.198 181.193 136.058 182.988 136.894C189.413 139.936 195.914 139.176 202.483 137.115C215.006 133.122 228.434 124.361 236.251 113.539C237.117 112.337 238.889 113.797 238.022 114.999C229.658 126.589 215.569 135.404 202.24 139.647C196.332 141.534 189.785 142.294 183.915 139.868C180.349 138.347 175.346 136.294 173.757 132.346C170.974 125.448 185.497 121.441 189.352 120.132C194.834 118.262 200.423 116.71 205.943 115.007C210.094 113.721 214.717 112.527 218.359 110.048C219.584 109.227 220.945 111.097 219.713 111.919Z" fill="#3275A6"/>
</svg>
